<?xml version="1.0" encoding="UTF-8"?>
<svg xmlns="http://www.w3.org/2000/svg" version="1.1" xmlns:xlink="http://www.w3.org/1999/xlink" viewBox="0 0 1000 1000">
  <defs>
    <style>
      .cls-1 {
        fill: #2ca3dd;
      }

      .cls-2 {
        fill: url(#linear-gradient-2);
      }

      .cls-3 {
        fill: url(#linear-gradient);
      }
    </style>
    <linearGradient id="linear-gradient" x1="106.01" y1="452.18" x2="154.29" y2="452.18" gradientUnits="userSpaceOnUse">
      <stop offset="0" stop-color="#0055d1"/>
      <stop offset="1" stop-color="#2b92d5"/>
    </linearGradient>
    <linearGradient id="linear-gradient-2" x1="37.43" y1="500.38" x2="223.11" y2="500.38" xlink:href="#linear-gradient"/>
  </defs>
  <!-- Generator: Adobe Illustrator 28.7.1, SVG Export Plug-In . SVG Version: 1.2.0 Build 142)  -->
  <g>
    <g id="Layer_1">
      <g>
        <path class="cls-3" d="M119.03,479.46c1.01,1.75,2.04,3.4,3.07,4.88.55.78,1.45,1.24,2.4,1.25h11.28c.78,0,1.53-.32,2.08-.87.11-.12,2.4-3.51,3.4-5.27,3.33.85,13.03,1.73,13.03,1.73,0,0-.98-14.77-5.85-20.27,1.11-5.41,1.38-10.97.25-16.25-2.11-10.01-9.29-17.86-16.46-25.03-1.15-1.15-3.01-1.14-4.16,0-7.47,7.47-14.35,15-16.47,25.02-1.12,5.28-.85,10.85.26,16.25-4.87,5.51-5.85,20.28-5.85,20.28,0,0,9.69-.87,13.02-1.72ZM130.27,443.02c2.82,0,5.11,2.29,5.11,5.11s-2.29,5.11-5.11,5.11-5.11-2.29-5.11-5.11,2.29-5.11,5.11-5.11Z"/>
        <path class="cls-2" d="M206.88,369.59H53.76c-8.95,0-16.23,7.29-16.23,16.23l-.09,205.1c0,8.95,7.29,16.23,16.23,16.23h10.01v24.01l17.32-9.02,17.32,9.02v-24.01h108.56c8.97,0,16.23-7.29,16.23-16.23v-205.1c0-8.95-7.27-16.23-16.23-16.23ZM58.02,593.26c-3.69-.01-6.68-3-6.69-6.69v-10.76h12.34v17.44h-5.66ZM63.38,537.44c-.16,0-4.12.03-4.12.03-6.88,0-9.68-4.87-6.25-10.82l71.02-123c3.44-5.95,9.06-5.95,12.5,0l71.01,123c3.44,5.95.63,10.82-6.24,10.82,0,0-4.08-.03-4.25-.03-36.79,0-63.02-6.79-63.02-48.8h-7.62c0,42.01-26.23,48.8-63.02,48.8ZM209.21,586.57c0,3.69-2.99,6.69-6.69,6.69h-104.2v-17.44h110.89v10.76Z"/>
      </g>
      <g>
        <path class="cls-1" d="M285.27,437.17c-1.77-1.77-2.65-4.03-2.65-6.78s.88-5.01,2.65-6.78c1.77-1.77,4.03-2.65,6.78-2.65s5.01.88,6.78,2.65,2.65,4.03,2.65,6.78-.88,5.01-2.65,6.78-4.03,2.65-6.78,2.65-5.01-.88-6.78-2.65ZM284.68,524.97v-71.89c0-.98.49-1.47,1.47-1.47h11.2c.98,0,1.47.49,1.47,1.47v71.89c0,.98-.49,1.47-1.47,1.47h-11.2c-.98,0-1.47-.49-1.47-1.47Z"/>
        <path class="cls-1" d="M328.65,524.82c-4.47-1.77-7.93-4.2-10.39-7.29-2.46-3.09-3.68-6.5-3.68-10.24v-1.62c0-.98.49-1.47,1.47-1.47h10.61c.98,0,1.47.49,1.47,1.47v.74c0,2.75,1.5,5.16,4.49,7.22,2.99,2.06,6.8,3.09,11.42,3.09s8-.96,10.75-2.87c2.75-1.92,4.12-4.35,4.12-7.29s-1.28-4.98-3.83-6.41c-2.56-1.42-6.68-2.92-12.38-4.49-5.6-1.57-10.29-3.17-14.07-4.79-3.78-1.62-6.97-3.93-9.58-6.92-2.6-3-3.9-6.85-3.9-11.56,0-6.58,2.58-11.81,7.73-15.69,5.16-3.88,12.01-5.82,20.55-5.82,5.69,0,10.73.91,15.1,2.73,4.37,1.82,7.73,4.35,10.09,7.59,2.36,3.24,3.54,6.88,3.54,10.9v.44c0,.98-.49,1.47-1.47,1.47h-10.31c-.98,0-1.47-.49-1.47-1.47v-.44c0-2.85-1.4-5.23-4.2-7.14-2.8-1.92-6.61-2.87-11.42-2.87-4.32,0-7.83.84-10.53,2.5-2.7,1.67-4.05,3.93-4.05,6.78s1.3,5.01,3.9,6.48c2.6,1.47,6.8,3.05,12.6,4.71,5.69,1.57,10.43,3.12,14.22,4.64,3.78,1.52,7,3.78,9.65,6.78,2.65,3,3.98,6.9,3.98,11.71,0,6.68-2.63,11.98-7.88,15.91-5.25,3.93-12.25,5.89-20.99,5.89-5.89,0-11.07-.88-15.54-2.65Z"/>
        <path class="cls-1" d="M386.32,525.12v-100.17c0-.98.49-1.47,1.47-1.47h11.2c.98,0,1.47.49,1.47,1.47v56.72c0,.2.1.35.29.44.2.1.34.05.44-.15l27.25-29.61c.39-.49.98-.74,1.77-.74h13.11c.59,0,.96.17,1.1.52.15.35.02.76-.37,1.25l-19,21.95c-.2.39-.25.69-.15.88l22.54,48.61.15.59c0,.79-.44,1.18-1.33,1.18h-11.79c-.79,0-1.33-.39-1.62-1.18l-17.53-40.07c-.2-.49-.44-.54-.74-.15l-13.85,15.32c-.2.39-.29.64-.29.74v23.87c0,.98-.49,1.47-1.47,1.47h-11.2c-.98,0-1.47-.49-1.47-1.47Z"/>
        <path class="cls-1" d="M504.62,451.6h11.05c.98,0,1.47.49,1.47,1.47v72.04c0,.98-.49,1.47-1.47,1.47h-11.05c-.98,0-1.47-.49-1.47-1.47v-5.45c0-.2-.07-.32-.22-.37-.15-.05-.32.03-.52.22-3.93,5.4-9.97,8.1-18.12,8.1-4.81,0-9.26-.93-13.33-2.8-4.08-1.86-7.34-4.62-9.8-8.25-2.46-3.63-3.68-8.05-3.68-13.26v-50.23c0-.98.49-1.47,1.47-1.47h11.05c.98,0,1.47.49,1.47,1.47v45.82c0,5.11,1.35,9.13,4.05,12.08,2.7,2.95,6.5,4.42,11.42,4.42s8.84-1.5,11.79-4.49c2.95-2.99,4.42-7,4.42-12.01v-45.82c0-.98.49-1.47,1.47-1.47Z"/>
        <path class="cls-1" d="M534.52,525.12v-100.17c0-.98.49-1.47,1.47-1.47h11.2c.98,0,1.47.49,1.47,1.47v100.17c0,.98-.49,1.47-1.47,1.47h-11.2c-.98,0-1.47-.49-1.47-1.47Z"/>
        <path class="cls-1" d="M608.99,453.59c4.47,2.11,7.9,5.06,10.31,8.84,2.41,3.78,3.61,8.08,3.61,12.89v49.79c0,.98-.49,1.47-1.47,1.47h-11.2c-.98,0-1.47-.49-1.47-1.47v-5.3c0-.49-.25-.59-.74-.29-2.55,2.65-5.67,4.69-9.35,6.11-3.68,1.42-7.78,2.14-12.3,2.14-7.27,0-13.28-1.84-18.05-5.52-4.76-3.68-7.15-9.26-7.15-16.72s2.67-13.67,8.03-18.05c5.35-4.37,12.84-6.56,22.47-6.56h16.5c.39,0,.59-.2.59-.59v-3.98c0-4.32-1.25-7.68-3.76-10.09-2.5-2.41-6.31-3.61-11.42-3.61-4.12,0-7.49.81-10.09,2.43-2.6,1.62-4.2,3.81-4.79,6.56-.29.98-.88,1.42-1.77,1.33l-11.93-1.62c-.98-.2-1.42-.59-1.33-1.18.79-5.79,3.88-10.53,9.28-14.22,5.4-3.68,12.18-5.52,20.33-5.52,5.99,0,11.22,1.06,15.69,3.17ZM603.02,511.71c3.83-2.75,5.75-6.24,5.75-10.46v-8.69c0-.39-.2-.59-.59-.59h-13.85c-5.8,0-10.41,1.13-13.85,3.39-3.44,2.26-5.16,5.4-5.16,9.43,0,3.63,1.3,6.38,3.9,8.25,2.6,1.87,6.01,2.8,10.24,2.8,5.2,0,9.72-1.37,13.55-4.12Z"/>
        <path class="cls-1" d="M702.46,489.32c0,6.88-.79,12.82-2.36,17.83-2.06,6.58-5.45,11.66-10.17,15.25-4.71,3.59-10.75,5.38-18.12,5.38-3.34,0-6.51-.66-9.5-1.99-3-1.33-5.58-3.22-7.73-5.67-.2-.2-.37-.24-.52-.15-.15.1-.22.25-.22.44v32.85c0,.98-.49,1.47-1.47,1.47h-11.2c-.98,0-1.47-.49-1.47-1.47v-100.18c0-.98.49-1.47,1.47-1.47h11.2c.98,0,1.47.49,1.47,1.47v4.86c0,.2.07.35.22.44.15.1.32.05.52-.15,2.16-2.45,4.71-4.37,7.66-5.75,2.95-1.37,6.14-2.06,9.58-2.06,7.07,0,12.94,1.74,17.6,5.23,4.66,3.49,8.08,8.42,10.24,14.81,1.86,5.3,2.8,11.59,2.8,18.86ZM688.17,489.02c0-7.56-1.23-13.65-3.68-18.27-2.85-5.4-7.51-8.1-14-8.1-5.7,0-10.02,2.65-12.96,7.96-2.36,4.22-3.54,10.41-3.54,18.56s1.28,14.54,3.83,18.86c2.85,5.01,7.02,7.51,12.52,7.51,5.89,0,10.26-2.36,13.11-7.07,3.14-4.71,4.71-11.2,4.71-19.45Z"/>
        <path class="cls-1" d="M781.42,489.32c0,6.88-.79,12.82-2.36,17.83-2.06,6.58-5.45,11.66-10.17,15.25-4.71,3.59-10.75,5.38-18.12,5.38-3.34,0-6.51-.66-9.5-1.99-3-1.33-5.58-3.22-7.73-5.67-.2-.2-.37-.24-.52-.15-.15.1-.22.25-.22.44v32.85c0,.98-.49,1.47-1.47,1.47h-11.2c-.98,0-1.47-.49-1.47-1.47v-100.18c0-.98.49-1.47,1.47-1.47h11.2c.98,0,1.47.49,1.47,1.47v4.86c0,.2.07.35.22.44.15.1.32.05.52-.15,2.16-2.45,4.71-4.37,7.66-5.75,2.95-1.37,6.14-2.06,9.58-2.06,7.07,0,12.94,1.74,17.6,5.23,4.66,3.49,8.08,8.42,10.24,14.81,1.86,5.3,2.8,11.59,2.8,18.86ZM767.13,489.02c0-7.56-1.23-13.65-3.68-18.27-2.85-5.4-7.51-8.1-14-8.1-5.7,0-10.02,2.65-12.96,7.96-2.36,4.22-3.54,10.41-3.54,18.56s1.28,14.54,3.83,18.86c2.85,5.01,7.02,7.51,12.52,7.51,5.89,0,10.26-2.36,13.11-7.07,3.14-4.71,4.71-11.2,4.71-19.45Z"/>
        <path class="cls-1" d="M797.04,523.94c-1.77-1.77-2.65-4.03-2.65-6.78s.88-5.01,2.65-6.78,4.03-2.65,6.78-2.65,5.01.88,6.78,2.65,2.65,4.03,2.65,6.78-.88,5.01-2.65,6.78c-1.77,1.77-4.03,2.65-6.78,2.65s-5.01-.88-6.78-2.65Z"/>
        <path class="cls-1" d="M895.15,489.32c0,6.88-.79,12.82-2.36,17.83-2.06,6.58-5.45,11.66-10.17,15.25-4.71,3.59-10.75,5.38-18.12,5.38-3.34,0-6.51-.66-9.5-1.99-3-1.33-5.58-3.22-7.73-5.67-.2-.2-.37-.24-.52-.15-.15.1-.22.25-.22.44v32.85c0,.98-.49,1.47-1.47,1.47h-11.2c-.98,0-1.47-.49-1.47-1.47v-100.18c0-.98.49-1.47,1.47-1.47h11.2c.98,0,1.47.49,1.47,1.47v4.86c0,.2.07.35.22.44.15.1.32.05.52-.15,2.16-2.45,4.71-4.37,7.66-5.75,2.95-1.37,6.14-2.06,9.58-2.06,7.07,0,12.94,1.74,17.6,5.23,4.66,3.49,8.08,8.42,10.24,14.81,1.86,5.3,2.8,11.59,2.8,18.86ZM880.86,489.02c0-7.56-1.23-13.65-3.68-18.27-2.85-5.4-7.51-8.1-14-8.1-5.7,0-10.02,2.65-12.96,7.96-2.36,4.22-3.54,10.41-3.54,18.56s1.28,14.54,3.83,18.86c2.85,5.01,7.02,7.51,12.52,7.51,5.89,0,10.26-2.36,13.11-7.07,3.14-4.71,4.71-11.2,4.71-19.45Z"/>
        <path class="cls-1" d="M962.92,457.57c4.71,4.67,7.07,10.98,7.07,18.93v48.61c0,.98-.49,1.47-1.47,1.47h-11.2c-.98,0-1.47-.49-1.47-1.47v-45.81c0-4.91-1.42-8.89-4.27-11.93-2.85-3.04-6.63-4.57-11.34-4.57s-8.4,1.52-11.34,4.57c-2.95,3.05-4.42,6.97-4.42,11.79v45.96c0,.98-.49,1.47-1.47,1.47h-11.2c-.98,0-1.47-.49-1.47-1.47v-100.17c0-.98.49-1.47,1.47-1.47h11.2c.98,0,1.47.49,1.47,1.47v33.44c0,.2.07.35.22.44.15.1.27.05.37-.15,4.22-5.4,10.46-8.1,18.71-8.1s14.44,2.33,19.15,7Z"/>
      </g>
    </g>
  </g>
</svg>