<?xml version="1.0" encoding="UTF-8"?>
<svg xmlns="http://www.w3.org/2000/svg" version="1.1" viewBox="0 0 1000 1000">
  <defs>
    <style>
      .cls-1 {
        fill: #f1f2f2;
      }
    </style>
  </defs>
  <!-- Generator: Adobe Illustrator 28.7.1, SVG Export Plug-In . SVG Version: 1.2.0 Build 142)  -->
  <g>
    <g id="Layer_1">
      <g>
        <path class="cls-1" d="M471.4,355.76c1.53,2.66,3.09,5.17,4.67,7.41.83,1.18,2.2,1.89,3.65,1.9h17.13c1.19,0,2.32-.49,3.16-1.32.17-.18,3.64-5.33,5.16-8,5.06,1.3,19.79,2.62,19.79,2.62,0,0-1.49-22.44-8.89-30.79,1.69-8.21,2.09-16.67.39-24.68-3.2-15.21-14.11-27.13-25.01-38.02-1.75-1.75-4.58-1.74-6.31,0-11.35,11.35-21.8,22.79-25.02,38-1.7,8.03-1.29,16.48.4,24.68-7.4,8.37-8.88,30.8-8.88,30.8,0,0,14.72-1.32,19.78-2.61ZM488.47,300.41c4.29,0,7.76,3.48,7.76,7.76s-3.47,7.76-7.76,7.76-7.76-3.47-7.76-7.76,3.48-7.76,7.76-7.76Z"/>
        <path class="cls-1" d="M604.84,188.87h-232.59c-13.59,0-24.66,11.07-24.66,24.66l-.14,311.54c0,13.59,11.07,24.66,24.66,24.66h15.21v36.47l26.31-13.7,26.31,13.7v-36.47h164.89c13.62,0,24.66-11.07,24.66-24.66V213.53c0-13.59-11.04-24.66-24.66-24.66ZM378.72,528.62c-5.6-.02-10.14-4.55-10.16-10.16v-16.34h18.75v26.5h-8.59ZM386.87,443.83c-.24,0-6.26.05-6.26.05-10.44,0-14.71-7.4-9.49-16.44l107.88-186.84c5.22-9.04,13.76-9.04,18.98,0l107.87,186.84c5.22,9.04.95,16.44-9.48,16.44,0,0-6.2-.05-6.45-.05-55.88,0-95.72-10.32-95.72-74.13h-11.58c0,63.81-39.85,74.13-95.73,74.13ZM608.38,518.46c0,5.61-4.55,10.16-10.16,10.16h-158.28v-26.49h168.44v16.34Z"/>
      </g>
      <g>
        <path class="cls-1" d="M94.05,672.01c-2.04-2.04-3.06-4.65-3.06-7.83s1.02-5.79,3.06-7.83c2.04-2.04,4.65-3.06,7.83-3.06s5.79,1.02,7.83,3.06c2.04,2.04,3.06,4.65,3.06,7.83s-1.02,5.79-3.06,7.83c-2.04,2.04-4.65,3.06-7.83,3.06s-5.79-1.02-7.83-3.06ZM93.36,773.45v-83.05c0-1.13.57-1.7,1.7-1.7h12.93c1.13,0,1.7.57,1.7,1.7v83.05c0,1.14-.57,1.7-1.7,1.7h-12.93c-1.14,0-1.7-.57-1.7-1.7Z"/>
        <path class="cls-1" d="M144.17,773.28c-5.16-2.04-9.16-4.85-12-8.42-2.84-3.57-4.25-7.51-4.25-11.83v-1.87c0-1.13.57-1.7,1.7-1.7h12.25c1.13,0,1.7.57,1.7,1.7v.85c0,3.18,1.73,5.96,5.19,8.34,3.46,2.38,7.86,3.57,13.19,3.57s9.25-1.11,12.42-3.32c3.18-2.21,4.77-5.02,4.77-8.42s-1.48-5.76-4.42-7.4c-2.95-1.64-7.72-3.38-14.3-5.19-6.47-1.81-11.89-3.66-16.25-5.53-4.37-1.87-8.06-4.54-11.06-8-3.01-3.46-4.51-7.91-4.51-13.36,0-7.6,2.98-13.64,8.94-18.13,5.96-4.48,13.87-6.72,23.74-6.72,6.58,0,12.39,1.05,17.44,3.15,5.05,2.1,8.94,5.02,11.66,8.77s4.08,7.94,4.08,12.59v.51c0,1.14-.57,1.7-1.7,1.7h-11.91c-1.14,0-1.7-.57-1.7-1.7v-.51c0-3.29-1.62-6.04-4.85-8.25-3.23-2.21-7.63-3.32-13.19-3.32-4.99,0-9.05.97-12.17,2.89-3.12,1.93-4.68,4.54-4.68,7.83s1.5,5.79,4.51,7.49c3,1.7,7.86,3.52,14.55,5.45,6.58,1.82,12.05,3.6,16.42,5.36,4.37,1.76,8.08,4.37,11.15,7.83,3.06,3.46,4.6,7.97,4.6,13.53,0,7.72-3.04,13.84-9.1,18.38-6.07,4.54-14.16,6.81-24.25,6.81-6.81,0-12.79-1.02-17.96-3.06Z"/>
        <path class="cls-1" d="M210.79,773.62v-115.73c0-1.13.57-1.7,1.7-1.7h12.93c1.13,0,1.7.57,1.7,1.7v65.52c0,.23.11.4.34.51.23.11.4.06.51-.17l31.49-34.21c.45-.57,1.13-.85,2.04-.85h15.15c.68,0,1.11.2,1.28.6.17.4.03.88-.43,1.45l-21.95,25.36c-.23.46-.28.79-.17,1.02l26.04,56.16.17.68c0,.91-.51,1.36-1.53,1.36h-13.62c-.91,0-1.53-.45-1.87-1.36l-20.25-46.29c-.23-.57-.51-.62-.85-.17l-16,17.7c-.23.46-.34.74-.34.85v27.57c0,1.14-.57,1.7-1.7,1.7h-12.93c-1.14,0-1.7-.57-1.7-1.7Z"/>
        <path class="cls-1" d="M347.46,688.69h12.76c1.13,0,1.7.57,1.7,1.7v83.22c0,1.14-.57,1.7-1.7,1.7h-12.76c-1.14,0-1.7-.57-1.7-1.7v-6.3c0-.23-.09-.37-.26-.43-.17-.06-.37.03-.6.26-4.54,6.24-11.52,9.36-20.93,9.36-5.56,0-10.7-1.08-15.4-3.23-4.71-2.15-8.48-5.33-11.32-9.53-2.84-4.2-4.25-9.3-4.25-15.32v-58.04c0-1.13.57-1.7,1.7-1.7h12.76c1.13,0,1.7.57,1.7,1.7v52.93c0,5.9,1.56,10.55,4.68,13.96,3.12,3.4,7.52,5.11,13.19,5.11s10.21-1.73,13.62-5.19c3.4-3.46,5.11-8.08,5.11-13.87v-52.93c0-1.13.57-1.7,1.7-1.7Z"/>
        <path class="cls-1" d="M382,773.62v-115.73c0-1.13.57-1.7,1.7-1.7h12.93c1.13,0,1.7.57,1.7,1.7v115.73c0,1.14-.57,1.7-1.7,1.7h-12.93c-1.14,0-1.7-.57-1.7-1.7Z"/>
        <path class="cls-1" d="M468.03,690.99c5.16,2.44,9.13,5.85,11.91,10.21,2.78,4.37,4.17,9.33,4.17,14.89v57.52c0,1.14-.57,1.7-1.7,1.7h-12.93c-1.14,0-1.7-.57-1.7-1.7v-6.13c0-.57-.28-.68-.85-.34-2.95,3.06-6.55,5.42-10.81,7.06s-8.99,2.47-14.21,2.47c-8.4,0-15.35-2.13-20.85-6.38-5.5-4.25-8.25-10.69-8.25-19.32s3.09-15.8,9.28-20.85c6.18-5.05,14.83-7.57,25.95-7.57h19.06c.45,0,.68-.23.68-.68v-4.59c0-4.99-1.45-8.88-4.34-11.66-2.89-2.78-7.29-4.17-13.19-4.17-4.77,0-8.65.94-11.66,2.81-3.01,1.87-4.85,4.4-5.53,7.57-.34,1.14-1.02,1.65-2.04,1.53l-13.79-1.87c-1.14-.23-1.65-.68-1.53-1.36.91-6.69,4.48-12.17,10.72-16.42,6.24-4.25,14.07-6.38,23.49-6.38,6.92,0,12.96,1.22,18.13,3.66ZM461.14,758.13c4.42-3.17,6.64-7.2,6.64-12.08v-10.04c0-.45-.23-.68-.68-.68h-16c-6.7,0-12.03,1.31-16,3.92-3.97,2.61-5.96,6.24-5.96,10.89,0,4.2,1.5,7.38,4.51,9.53,3.01,2.16,6.95,3.23,11.83,3.23,6.01,0,11.23-1.59,15.66-4.77Z"/>
        <path class="cls-1" d="M576.02,732.26c0,7.94-.91,14.81-2.72,20.59-2.38,7.6-6.3,13.47-11.74,17.61-5.45,4.14-12.42,6.21-20.93,6.21-3.86,0-7.52-.77-10.98-2.3-3.46-1.53-6.44-3.71-8.93-6.55-.23-.23-.43-.28-.6-.17-.17.11-.26.28-.26.51v37.95c0,1.13-.57,1.7-1.7,1.7h-12.93c-1.14,0-1.7-.57-1.7-1.7v-115.73c0-1.13.57-1.7,1.7-1.7h12.93c1.13,0,1.7.57,1.7,1.7v5.62c0,.23.09.4.26.51.17.11.37.06.6-.17,2.49-2.83,5.45-5.05,8.85-6.64,3.4-1.59,7.09-2.38,11.06-2.38,8.17,0,14.95,2.02,20.34,6.04,5.39,4.03,9.33,9.73,11.83,17.1,2.15,6.13,3.23,13.39,3.23,21.78ZM559.51,731.92c0-8.74-1.42-15.77-4.25-21.1-3.29-6.24-8.68-9.36-16.17-9.36-6.58,0-11.57,3.06-14.98,9.19-2.72,4.88-4.08,12.03-4.08,21.44s1.47,16.79,4.42,21.78c3.29,5.79,8.11,8.68,14.47,8.68,6.81,0,11.86-2.72,15.15-8.17,3.63-5.45,5.45-12.93,5.45-22.46Z"/>
        <path class="cls-1" d="M667.24,732.26c0,7.94-.91,14.81-2.72,20.59-2.38,7.6-6.3,13.47-11.74,17.61-5.45,4.14-12.42,6.21-20.93,6.21-3.86,0-7.52-.77-10.98-2.3-3.46-1.53-6.44-3.71-8.93-6.55-.23-.23-.43-.28-.6-.17-.17.11-.26.28-.26.51v37.95c0,1.13-.57,1.7-1.7,1.7h-12.93c-1.14,0-1.7-.57-1.7-1.7v-115.73c0-1.13.57-1.7,1.7-1.7h12.93c1.13,0,1.7.57,1.7,1.7v5.62c0,.23.09.4.26.51.17.11.37.06.6-.17,2.49-2.83,5.45-5.05,8.85-6.64,3.4-1.59,7.09-2.38,11.06-2.38,8.17,0,14.95,2.02,20.34,6.04,5.39,4.03,9.33,9.73,11.83,17.1,2.15,6.13,3.23,13.39,3.23,21.78ZM650.73,731.92c0-8.74-1.42-15.77-4.25-21.1-3.29-6.24-8.68-9.36-16.17-9.36-6.58,0-11.57,3.06-14.98,9.19-2.72,4.88-4.08,12.03-4.08,21.44s1.47,16.79,4.42,21.78c3.29,5.79,8.11,8.68,14.47,8.68,6.81,0,11.86-2.72,15.15-8.17,3.63-5.45,5.45-12.93,5.45-22.46Z"/>
        <path class="cls-1" d="M685.28,772.26c-2.04-2.04-3.06-4.65-3.06-7.83s1.02-5.79,3.06-7.83c2.04-2.04,4.65-3.06,7.83-3.06s5.79,1.02,7.83,3.06c2.04,2.04,3.06,4.65,3.06,7.83s-1.02,5.79-3.06,7.83-4.65,3.06-7.83,3.06-5.79-1.02-7.83-3.06Z"/>
        <path class="cls-1" d="M798.63,732.26c0,7.94-.91,14.81-2.72,20.59-2.38,7.6-6.3,13.47-11.74,17.61-5.45,4.14-12.42,6.21-20.93,6.21-3.86,0-7.52-.77-10.98-2.3-3.46-1.53-6.44-3.71-8.93-6.55-.23-.23-.43-.28-.6-.17-.17.11-.26.28-.26.51v37.95c0,1.13-.57,1.7-1.7,1.7h-12.93c-1.14,0-1.7-.57-1.7-1.7v-115.73c0-1.13.57-1.7,1.7-1.7h12.93c1.13,0,1.7.57,1.7,1.7v5.62c0,.23.09.4.26.51.17.11.37.06.6-.17,2.49-2.83,5.45-5.05,8.85-6.64,3.4-1.59,7.09-2.38,11.06-2.38,8.17,0,14.95,2.02,20.34,6.04,5.39,4.03,9.33,9.73,11.83,17.1,2.15,6.13,3.23,13.39,3.23,21.78ZM782.12,731.92c0-8.74-1.42-15.77-4.25-21.1-3.29-6.24-8.68-9.36-16.17-9.36-6.58,0-11.57,3.06-14.98,9.19-2.72,4.88-4.08,12.03-4.08,21.44s1.47,16.79,4.42,21.78c3.29,5.79,8.11,8.68,14.47,8.68,6.81,0,11.86-2.72,15.15-8.17,3.63-5.45,5.45-12.93,5.45-22.46Z"/>
        <path class="cls-1" d="M876.92,695.59c5.45,5.39,8.17,12.68,8.17,21.87v56.16c0,1.14-.57,1.7-1.7,1.7h-12.93c-1.14,0-1.7-.57-1.7-1.7v-52.93c0-5.67-1.65-10.27-4.94-13.79-3.29-3.52-7.66-5.28-13.1-5.28s-9.7,1.76-13.1,5.28c-3.4,3.52-5.11,8.06-5.11,13.62v53.1c0,1.14-.57,1.7-1.7,1.7h-12.93c-1.14,0-1.7-.57-1.7-1.7v-115.73c0-1.13.57-1.7,1.7-1.7h12.93c1.13,0,1.7.57,1.7,1.7v38.63c0,.23.08.4.25.51.17.11.31.06.43-.17,4.88-6.24,12.08-9.36,21.61-9.36s16.68,2.7,22.12,8.08Z"/>
      </g>
    </g>
  </g>
</svg>