<?xml version="1.0" encoding="UTF-8"?>
<svg xmlns="http://www.w3.org/2000/svg" version="1.1" xmlns:xlink="http://www.w3.org/1999/xlink" viewBox="0 0 1000 1000">
  <defs>
    <style>
      .cls-1 {
        fill: url(#linear-gradient-2);
      }

      .cls-2 {
        fill: url(#linear-gradient);
      }
    </style>
    <linearGradient id="linear-gradient" x1="426.22" y1="352.81" x2="574.02" y2="352.81" gradientUnits="userSpaceOnUse">
      <stop offset="0" stop-color="#0055d1"/>
      <stop offset="1" stop-color="#2b92d5"/>
    </linearGradient>
    <linearGradient id="linear-gradient-2" x1="216.27" y1="500.38" x2="784.71" y2="500.38" xlink:href="#linear-gradient"/>
  </defs>
  <!-- Generator: Adobe Illustrator 28.7.1, SVG Export Plug-In . SVG Version: 1.2.0 Build 142)  -->
  <g>
    <g id="Layer_1">
      <g>
        <path class="cls-2" d="M466.08,436.33c3.09,5.37,6.23,10.42,9.41,14.93,1.68,2.38,4.44,3.81,7.35,3.83l34.53-.03c2.4,0,4.67-.95,6.37-2.63.34-.35,7.34-10.75,10.4-16.13,10.19,2.61,39.88,5.28,39.88,5.28,0,0-3-45.23-17.92-62.06,3.41-16.55,4.22-33.59.78-49.74-6.46-30.66-28.45-54.68-50.4-76.62-3.52-3.52-9.23-3.5-12.72,0-22.88,22.88-43.94,45.93-50.43,76.59-3.42,16.18-2.6,33.22.8,49.74-14.91,16.86-17.9,62.08-17.9,62.08,0,0,29.68-2.66,39.86-5.26ZM500.49,324.79c8.64,0,15.64,7.01,15.64,15.64s-7,15.64-15.64,15.64-15.64-7-15.64-15.64,7.01-15.64,15.64-15.64Z"/>
        <path class="cls-1" d="M735.01,99.98h-468.76c-27.39,0-49.7,22.31-49.7,49.7l-.28,627.9c0,27.39,22.31,49.7,49.7,49.7h30.65v73.5l53.03-27.61,53.03,27.61v-73.5h332.34c27.45,0,49.7-22.31,49.7-49.7V149.68c0-27.39-22.25-49.7-49.7-49.7ZM279.29,784.73c-11.29-.04-20.44-9.18-20.47-20.47v-32.93h37.79v53.4h-17.32ZM295.71,613.83c-.49,0-12.62.1-12.62.1-21.05,0-29.65-14.91-19.14-33.13l217.42-376.56c10.52-18.22,27.72-18.22,38.25,0l217.4,376.56c10.52,18.22,1.92,33.13-19.12,33.13,0,0-12.5-.1-13-.1-112.62,0-192.92-20.8-192.92-149.41h-23.34c0,128.61-80.31,149.41-192.93,149.41ZM742.16,764.25c0,11.3-9.16,20.47-20.47,20.47h-319.01v-53.4h339.48v32.93Z"/>
      </g>
    </g>
  </g>
</svg>